<svg xmlns="http://www.w3.org/2000/svg" viewBox="0 0 220 440" role="img" aria-label="Mockup: Phone Display in tieferer Navigations-Ebene mit dunklerem Hintergrund">
  <title>Tiefer scrollen (Mockup)</title>
  <rect width="220" height="440" rx="28" fill="#0d0020"/>
  <rect x="6" y="6" width="208" height="428" rx="22" fill="#270082"/>
  <g opacity="0.85">
    <rect x="22"  y="60"  width="40" height="40" rx="10" fill="#b39bff"/>
    <rect x="76"  y="60"  width="40" height="40" rx="10" fill="#5F27CD"/>
    <rect x="130" y="60"  width="40" height="40" rx="10" fill="#48DBFB"/>
    <rect x="22"  y="120" width="40" height="40" rx="10" fill="#F368E0"/>
    <rect x="76"  y="120" width="40" height="40" rx="10" fill="#7841d6"/>
    <rect x="130" y="120" width="40" height="40" rx="10" fill="#FF9FF3"/>
    <rect x="22"  y="180" width="40" height="40" rx="10" fill="#01A3A4"/>
    <rect x="76"  y="180" width="40" height="40" rx="10" fill="#2E86DE"/>
    <rect x="130" y="180" width="40" height="40" rx="10" fill="#b39bff"/>
    <rect x="22"  y="240" width="40" height="40" rx="10" fill="#FF6B6B"/>
    <rect x="76"  y="240" width="40" height="40" rx="10" fill="#FF8E53"/>
    <rect x="130" y="240" width="40" height="40" rx="10" fill="#FECA57"/>
  </g>
  <text x="110" y="400" text-anchor="middle"
        font-family="system-ui, sans-serif" font-size="11" fill="#cfc6ff">
    Platzhalter — Screenshot folgt
  </text>
</svg>
