<svg xmlns="http://www.w3.org/2000/svg" viewBox="0 0 220 440" role="img" aria-label="Mockup: Phone Display mit App-Icon-Raster">
  <title>Endloses Raster (Mockup)</title>
  <rect width="220" height="440" rx="28" fill="#121212"/>
  <rect x="6" y="6" width="208" height="428" rx="22" fill="#1a1a2e"/>
  <g>
    <rect x="22"  y="40"  width="40" height="40" rx="10" fill="#FF6B6B"/>
    <rect x="76"  y="40"  width="40" height="40" rx="10" fill="#FECA57"/>
    <rect x="130" y="40"  width="40" height="40" rx="10" fill="#48DBFB"/>
    <rect x="22"  y="100" width="40" height="40" rx="10" fill="#5F27CD"/>
    <rect x="76"  y="100" width="40" height="40" rx="10" fill="#FF9FF3"/>
    <rect x="130" y="100" width="40" height="40" rx="10" fill="#10AC84"/>
    <rect x="22"  y="160" width="40" height="40" rx="10" fill="#01A3A4"/>
    <rect x="76"  y="160" width="40" height="40" rx="10" fill="#F368E0"/>
    <rect x="130" y="160" width="40" height="40" rx="10" fill="#FF8E53"/>
    <rect x="22"  y="220" width="40" height="40" rx="10" fill="#7BED9F"/>
    <rect x="76"  y="220" width="40" height="40" rx="10" fill="#70A1FF"/>
    <rect x="130" y="220" width="40" height="40" rx="10" fill="#FFBE76"/>
    <rect x="22"  y="280" width="40" height="40" rx="10" fill="#E056A0"/>
    <rect x="76"  y="280" width="40" height="40" rx="10" fill="#0ABDE3"/>
    <rect x="130" y="280" width="40" height="40" rx="10" fill="#FF6348"/>
  </g>
  <text x="110" y="400" text-anchor="middle"
        font-family="system-ui, sans-serif" font-size="11" fill="#aaa">
    Platzhalter — Screenshot folgt
  </text>
</svg>
